<svg width="139" height="116" viewBox="0 0 139 116" fill="none" xmlns="http://www.w3.org/2000/svg">
<g id="Greige Knitting 1">
<path id="Vector" d="M41.0977 21.1953C40.6853 20.6593 40.1316 20.2812 39.6729 19.7893C39.2142 19.2975 38.9038 18.6549 38.3686 18.2558C37.7455 17.7918 37.1408 18.5597 37.2103 19.1421C37.303 19.8218 37.991 20.5341 38.4497 20.9981C38.9548 21.5177 39.5501 22.0722 40.2706 22.2532C40.8289 22.3993 41.5054 21.7289 41.0977 21.1953Z" fill="#555555"/>
<path id="Vector_2" d="M97.6962 10.4391C98.5751 10.2815 99.4804 10.3706 100.312 10.6967C102.126 11.4251 103.764 13.2231 104.887 14.7543C124.22 40.9703 104.906 65.0032 109.164 89.7228C109.354 90.8457 109.592 92.0104 109.375 93.1286C108.839 95.9683 105.642 97.2187 102.77 97.9867C99.1974 98.9471 95.6491 99.8813 92.1247 100.789C87.6813 101.933 83.268 103.033 78.9197 104.149C68.8839 106.728 59.2141 109.403 50.01 112.18C48.6339 112.596 47.0632 112.995 45.0013 112.153C42.6314 111.187 40.7132 108.997 39.3927 107.049C36.6534 103.135 34.5892 98.7888 33.286 94.1911C27.8487 74.7542 38.4568 55.8578 39.4228 36.3071C39.6359 32.674 38.4637 27.7556 38.9224 24.0274C39.3394 20.4755 42.877 20.3641 45.5064 19.7632C54.1082 17.7564 62.6659 16.6243 70.8113 15.1232C79.9992 13.4551 88.7284 11.4739 97.6962 10.4391Z" fill="#8F8F8F"/>
<path id="Vector_3" d="M45.4251 22.7718C45.1935 24.0502 44.8691 25.3238 44.5448 26.63C43.6436 25.6602 42.7285 24.6696 41.7463 23.7161C41.137 23.1268 40.3076 23.8808 40.8682 24.5582C42.059 25.9966 43.2683 27.3422 44.3432 28.776C44.7139 29.2748 45.4483 29.1078 45.6915 28.544C46.3865 26.9061 46.785 25.1429 47.0978 23.44C47.2877 22.3218 45.6105 21.6513 45.4251 22.7718Z" fill="#555555"/>
<path id="Vector_4" d="M55.2548 21.2169C55.1003 21.8526 54.9227 22.4867 54.7219 23.1193C54.6015 23.5114 54.4903 24.2074 54.2725 24.6737C53.8601 24.3234 53.281 23.581 53.0331 23.3397C52.5095 22.8247 51.9767 22.305 51.4114 21.8039C50.7164 21.1752 49.901 21.9686 50.5473 22.6994C51.335 23.588 52.1365 24.4371 52.8987 25.2932C53.3991 25.8546 53.9412 26.648 54.7405 26.5251C55.4656 26.4137 55.6996 25.4718 55.9173 24.8848C56.2942 23.8811 56.6224 22.8757 56.9019 21.8688C57.1846 20.8527 55.4957 20.2008 55.2548 21.2169Z" fill="#555555"/>
<path id="Vector_5" d="M64.1137 19.7646C63.8241 20.8782 63.4766 21.9941 63.0642 23.1123C62.1654 22.1542 61.2109 21.189 60.2032 20.2912C59.5684 19.7344 59.0286 20.4002 59.5452 21.0336C60.6595 22.4001 61.8156 23.6807 62.8812 24.9776C63.194 25.3558 63.838 25.3558 64.0396 24.9405C64.6571 23.5776 65.1759 22.1719 65.5917 20.7343C65.8419 19.8318 64.3361 18.8667 64.1137 19.7646Z" fill="#555555"/>
<path id="Vector_6" d="M72.6159 17.915C72.543 19.0036 72.4139 20.0877 72.229 21.163C71.2444 20.235 70.2251 19.307 69.1363 18.4486C68.4413 17.8964 67.9362 18.553 68.5339 19.2049C69.8058 20.5969 71.1193 21.8868 72.3008 23.2115C72.7873 23.7614 73.4592 23.5131 73.5982 22.9795C73.9669 21.5289 74.2187 20.0509 74.3511 18.5599C74.4299 17.5484 72.6669 16.9034 72.6159 17.915Z" fill="#555555"/>
<path id="Vector_7" d="M82.5636 16.0286C82.5034 17.3324 82.4015 18.6641 82.2069 19.9934C80.9524 18.9515 79.644 17.9765 78.2871 17.0726C77.5921 16.6086 77.3465 17.3997 77.8909 17.931C79.3805 19.374 80.9466 20.715 82.3876 22.0049C82.7976 22.3761 83.532 22.4828 83.6617 21.9701C84.0992 20.312 84.3418 18.6084 84.3845 16.8939C84.3915 16.0077 82.5937 15.1493 82.5636 16.0286Z" fill="#555555"/>
<path id="Vector_8" d="M90.4613 14.6791C90.4497 15.5909 90.3779 16.498 90.2875 17.4214C89.9099 17.1128 89.5253 16.8019 89.1292 16.4934C88.455 15.9621 87.8736 15.4424 87.16 15.3334C86.8936 15.2916 86.7755 15.5097 86.8797 15.7719C87.1693 16.498 87.8064 16.9829 88.4203 17.5652C89.1987 18.296 89.9655 19.0083 90.6837 19.7483C91.2072 20.2935 91.9995 20.1891 92.1293 19.7135C92.4447 18.4738 92.6249 17.2036 92.6667 15.925C92.72 14.7975 90.452 13.54 90.4613 14.6791Z" fill="#555555"/>
<path id="Vector_9" d="M98.5488 12.1559C98.6841 13.243 98.886 14.3207 99.1534 15.383C98.2106 14.7079 97.2352 14.0421 96.2437 13.4713C95.514 13.0537 95.1479 13.7033 95.8244 14.3019C97.2515 15.5779 98.7666 16.7147 100.147 17.8701C100.796 18.4176 101.695 18.3341 101.551 17.6241C101.229 16.1138 101.032 14.7357 100.831 13.3577C100.655 12.2696 98.4167 11.0562 98.5488 12.1559Z" fill="#555555"/>
<path id="Vector_10" d="M46.762 29.5708C46.3102 30.8376 45.7704 32.1228 45.2422 33.3988C44.4731 32.443 43.7016 31.464 42.8607 30.5244C42.3394 29.9444 41.3688 30.696 41.8298 31.3642C42.8097 32.784 43.836 34.1204 44.7187 35.5286C45.0268 36.0204 45.7936 35.8511 46.1202 35.2966C47.0114 33.6769 47.7557 31.9803 48.3442 30.2274C48.7358 29.1138 47.1488 28.4596 46.762 29.5708Z" fill="#555555"/>
<path id="Vector_11" d="M57.0478 27.9798C56.7698 28.6085 56.4733 29.2396 56.1628 29.8683C55.9706 30.2557 55.7458 30.9471 55.44 31.4088C55.0786 31.0654 54.6153 30.3323 54.4068 30.0957C53.962 29.5853 53.5126 29.0725 53.033 28.5807C52.9067 28.4784 52.7486 28.4237 52.5861 28.4261C52.4237 28.4284 52.2672 28.4877 52.1438 28.5935C52.0205 28.6994 51.9381 28.8452 51.9109 29.0056C51.8837 29.166 51.9136 29.3309 51.9952 29.4716C52.6415 30.3485 53.311 31.1861 53.9481 32.0236C54.3651 32.5781 54.7937 33.3622 55.6254 33.2369C56.3783 33.1233 56.7652 32.186 57.0849 31.6129C57.6362 30.6153 58.1436 29.6131 58.6162 28.6132C59.0888 27.6133 57.4857 26.9729 57.0478 27.9798Z" fill="#555555"/>
<path id="Vector_12" d="M66.3564 26.5031C65.8398 27.6097 65.2652 28.7141 64.6536 29.8253C63.9076 28.8553 63.1103 27.926 62.2651 27.0413C61.7277 26.4938 61.0489 27.155 61.452 27.7791C62.33 29.127 63.2775 30.3914 64.1463 31.6605C64.2179 31.7494 64.3092 31.8203 64.4129 31.8678C64.5166 31.9152 64.63 31.9378 64.744 31.9337C64.858 31.9297 64.9694 31.8991 65.0695 31.8444C65.1697 31.7897 65.2557 31.7125 65.3208 31.6187C66.1778 30.2706 66.9605 28.8765 67.6653 27.4427C68.1101 26.5611 66.7641 25.6099 66.3564 26.5031Z" fill="#555555"/>
<path id="Vector_13" d="M75.4098 24.6239C75.1009 25.6972 74.7488 26.7706 74.3534 27.844C73.5287 26.9392 72.6785 26.0205 71.7472 25.169C71.1518 24.6262 70.4985 25.2804 70.9757 25.923C71.9904 27.2942 73.0793 28.5655 74.0407 29.8671C74.4368 30.4076 75.1689 30.1594 75.4029 29.635C76.0414 28.2088 76.5892 26.7435 77.0431 25.2479C77.3396 24.2527 75.6809 23.6216 75.4098 24.6239Z" fill="#555555"/>
<path id="Vector_14" d="M85.9922 22.7091C85.6308 23.9991 85.2347 25.3168 84.7621 26.6369C83.6976 25.6095 82.5703 24.6495 81.3867 23.7624C80.7728 23.3123 80.3535 24.0895 80.7936 24.6139C82.0006 26.036 83.3281 27.3468 84.5443 28.6275C84.8895 28.994 85.6169 29.0915 85.8463 28.588C86.6055 26.9711 87.2112 25.2863 87.6556 23.5559C87.8641 22.6697 86.2262 21.8368 85.9922 22.7091Z" fill="#555555"/>
<path id="Vector_15" d="M94.388 21.3437C94.1563 22.2462 93.8691 23.1463 93.5702 24.0604C93.2505 23.7565 92.9308 23.4526 92.6019 23.151C92.0343 22.6266 91.5663 22.1162 90.862 22.0049C90.8046 21.9947 90.7456 21.9993 90.6905 22.0183C90.6354 22.0373 90.586 22.0701 90.547 22.1135C90.5081 22.1569 90.4808 22.2096 90.4678 22.2665C90.4549 22.3234 90.4566 22.3827 90.4728 22.4387C90.6003 23.1579 91.1308 23.6335 91.6312 24.2066C92.2636 24.9281 92.8914 25.6287 93.466 26.3595C93.8853 26.8954 94.717 26.7887 94.9509 26.3178C95.5247 25.1119 95.9899 23.8573 96.3409 22.5686C96.6676 21.4388 94.659 20.2046 94.388 21.3437Z" fill="#555555"/>
<path id="Vector_16" d="M103.323 18.7935C103.166 19.8518 103.088 20.9205 103.092 21.9904C102.296 21.3147 101.459 20.6879 100.587 20.1136C99.948 19.7029 99.4082 20.3456 99.948 20.9372C101.095 22.1946 102.374 23.3128 103.52 24.4496C104.058 24.9879 104.998 24.8881 105.012 24.1991C105.033 22.705 105.17 21.3408 105.316 19.979C105.438 18.9025 103.469 17.7124 103.323 18.7935Z" fill="#555555"/>
<path id="Vector_17" d="M47.0723 36.3043C46.4398 37.5641 45.7309 38.8308 45.0498 40.1091C44.3803 39.1649 43.7178 38.1975 42.9857 37.2695C42.5224 36.6964 41.4521 37.4481 41.8274 38.107C42.6451 39.5106 43.5324 40.833 44.2807 42.225C44.5425 42.7122 45.3348 42.5405 45.724 41.993C46.7942 40.382 47.7495 38.6973 48.5828 36.9516C49.1364 35.8403 47.6167 35.2 47.0723 36.3043Z" fill="#555555"/>
<path id="Vector_18" d="M57.7406 34.6776C57.3638 35.2963 56.973 35.9219 56.5684 36.5545C56.3205 36.9419 56.0008 37.6263 55.6301 38.088C55.3081 37.747 54.9351 37.0231 54.7567 36.7888C54.3745 36.2877 53.9899 35.7796 53.5752 35.2924C53.0563 34.6823 51.9536 35.4711 52.3937 36.1833C52.9289 37.051 53.4988 37.8769 54.0362 38.7121C54.3907 39.2596 54.7312 40.0345 55.5884 39.9046C56.3645 39.7886 56.8719 38.8583 57.2703 38.2806C57.9653 37.2899 58.614 36.2923 59.2372 35.2994C59.8603 34.3064 58.336 33.6777 57.7406 34.6776Z" fill="#555555"/>
<path id="Vector_19" d="M67.4265 33.1607C66.7315 34.2604 65.9717 35.36 65.1956 36.4643C64.5784 35.5111 63.9062 34.5947 63.1824 33.7198C62.7191 33.1792 61.9268 33.8381 62.2442 34.4552C62.9392 35.7869 63.7129 37.0351 64.4265 38.2879C64.6373 38.6591 65.3022 38.6521 65.6265 38.2415C66.7014 36.8704 67.686 35.476 68.608 34.0887C69.1895 33.2117 67.9872 32.2768 67.4265 33.1607Z" fill="#555555"/>
<path id="Vector_20" d="M76.9528 31.26C76.454 32.3241 75.9134 33.3897 75.3312 34.4569C74.6399 33.5397 73.9023 32.6585 73.1211 31.8168C72.6091 31.2832 71.8307 31.9328 72.2083 32.5685C73.0145 33.921 73.9203 35.1785 74.708 36.4684C75.03 37.0043 75.8084 36.7537 76.1235 36.2364C76.9961 34.7887 77.7868 33.3364 78.4957 31.8794C78.9822 30.8795 77.4069 30.2647 76.9528 31.26Z" fill="#555555"/>
<path id="Vector_21" d="M88.0798 29.3084C87.4636 30.589 86.8218 31.8975 86.1199 33.206C85.2114 32.1947 84.2329 31.2489 83.1916 30.3755C82.6495 29.9324 82.0773 30.705 82.4341 31.2224C83.4094 32.6144 84.5399 33.9182 85.5755 35.1826C85.8697 35.5422 86.5902 35.6466 86.9052 35.1362C87.9268 33.5374 88.8326 31.8674 89.6157 30.1389C89.9933 29.262 88.4968 28.4453 88.0798 29.3084Z" fill="#555555"/>
<path id="Vector_22" d="M96.9131 27.9012C96.4915 28.7968 96.0212 29.69 95.5463 30.5971C95.2799 30.2978 95.0111 29.9962 94.7331 29.6992C94.2559 29.1842 93.8783 28.6808 93.1833 28.574C93.1226 28.5668 93.061 28.5726 93.0027 28.591C92.9444 28.6094 92.8907 28.64 92.8451 28.6809C92.7995 28.7217 92.7631 28.7717 92.7384 28.8277C92.7136 28.8837 92.701 28.9443 92.7014 29.0056C92.7014 29.7178 93.1416 30.1864 93.5493 30.7525C94.059 31.4624 94.571 32.1561 95.0297 32.8753C95.3633 33.4043 96.2274 33.2929 96.5471 32.8266C97.338 31.6395 98.0462 30.3992 98.6668 29.1146C99.2136 27.9964 97.4251 26.783 96.9131 27.9012Z" fill="#555555"/>
<path id="Vector_23" d="M106.567 25.3496C106.181 26.3771 105.88 27.4347 105.668 28.5117C104.992 27.8417 104.269 27.2215 103.504 26.6557C103.393 26.5612 103.25 26.5119 103.104 26.5175C102.958 26.5231 102.82 26.5832 102.716 26.686C102.612 26.7887 102.551 26.9267 102.543 27.0727C102.536 27.2187 102.584 27.3621 102.677 27.4747C103.583 28.7136 104.667 29.8156 105.617 30.9361C106.064 31.4674 107.042 31.3653 107.185 30.6809C107.496 29.2672 107.889 27.8728 108.362 26.5049C108.712 25.4424 106.974 24.2731 106.567 25.3496Z" fill="#555555"/>
<path id="Vector_24" d="M46.5905 42.9886C45.826 44.2414 44.9966 45.5035 44.2066 46.7771C43.6043 45.8491 43.0182 44.884 42.3533 43.9676C41.9502 43.4015 40.7826 44.1509 41.1139 44.8051C41.8089 46.1971 42.6104 47.5033 43.273 48.8837C43.5047 49.3663 44.3155 49.1923 44.7464 48.6331C45.944 47.0239 47.0515 45.3494 48.0639 43.6173C48.7241 42.5176 47.26 41.8889 46.5905 42.9886Z" fill="#555555"/>
<path id="Vector_25" d="M57.567 41.3181C57.1129 41.9368 56.6496 42.5555 56.177 43.1741C55.8851 43.5592 55.4935 44.2413 55.0765 44.7007C54.7823 44.3643 54.4765 43.6474 54.319 43.4154C53.9808 42.9189 53.6448 42.4178 53.2765 41.9376C52.8132 41.3344 51.6178 42.1232 51.9884 42.8285C52.4518 43.6845 52.9383 44.5035 53.4085 45.3294C53.7167 45.8723 53.997 46.6379 54.8727 46.5056C55.6673 46.3873 56.2627 45.4593 56.726 44.8816C57.5137 43.8918 58.2782 42.9011 59.0195 41.9097C59.7516 40.933 58.2851 40.3205 57.567 41.3181Z" fill="#555555"/>
<path id="Vector_26" d="M67.5609 39.7636C66.7107 40.8586 65.8258 41.9513 64.9199 43.0533C64.3989 42.1138 63.8218 41.2066 63.1917 40.3366C62.7909 39.803 61.9036 40.4619 62.1538 41.0721C62.6959 42.3898 63.3585 43.6241 63.9608 44.8676C64.1369 45.2341 64.8111 45.2225 65.1771 44.8142C66.398 43.4477 67.5447 42.0581 68.6521 40.6777C69.3425 39.803 68.242 38.882 67.5609 39.7636Z" fill="#555555"/>
<path id="Vector_27" d="M77.4741 37.8287C76.8208 38.8866 76.1381 39.9461 75.4261 41.0071C74.8369 40.1061 74.2013 39.2365 73.5218 38.4017C73.0747 37.8728 72.1944 38.5224 72.4955 39.1511C73.1373 40.4897 73.9064 41.7309 74.562 43.0092C74.8307 43.5382 75.6462 43.2853 76.0215 42.7772C77.0686 41.3357 78.0501 39.8904 78.966 38.4412C79.5868 37.4436 78.0718 36.8404 77.4741 37.8287Z" fill="#555555"/>
<path id="Vector_28" d="M89.0619 35.8353C88.2371 37.109 87.3985 38.4105 86.5135 39.712C85.7274 38.7185 84.8653 37.7877 83.9351 36.928C83.4486 36.4918 82.7536 37.2598 83.0431 37.7725C83.8331 39.1645 84.8154 40.4358 85.7096 41.684C85.7959 41.781 85.9025 41.8576 86.0218 41.9084C86.1412 41.9593 86.2703 41.983 86.3998 41.9779C86.5294 41.9728 86.6563 41.939 86.7712 41.8789C86.8862 41.8189 86.9865 41.7341 87.0649 41.6306C88.2958 40.0344 89.4403 38.3733 90.4935 36.6542C91.0102 35.7819 89.6109 34.9769 89.0619 35.8353Z" fill="#555555"/>
<path id="Vector_29" d="M98.266 34.4013C97.6891 35.2899 97.0682 36.1785 96.4497 37.0809C96.218 36.784 95.9864 36.487 95.7547 36.1947C95.3493 35.6866 95.0458 35.1878 94.3647 35.0857C94.2345 35.0755 94.1052 35.114 94.0016 35.1937C93.8981 35.2734 93.8277 35.3886 93.8041 35.5172C93.6813 36.2132 94.0682 36.6773 94.3971 37.2433C94.8095 37.9393 95.2311 38.6353 95.5972 39.3313C95.8636 39.8556 96.7555 39.742 97.1424 39.2756C98.1111 38.0879 99.0151 36.8488 99.8506 35.5636C100.587 34.4848 98.9749 33.2901 98.266 34.4013Z" fill="#555555"/>
<path id="Vector_30" d="M108.543 31.8215C107.965 32.825 107.473 33.8749 107.069 34.9605C106.492 34.3038 105.862 33.6955 105.186 33.1416C104.683 32.7426 103.868 33.3736 104.201 33.9559C104.91 35.1809 105.823 36.2759 106.627 37.371C107.002 37.8953 108.017 37.7886 108.26 37.1111C108.804 35.6888 109.438 34.3025 110.158 32.9607C110.707 31.9027 109.159 30.752 108.543 31.8215Z" fill="#555555"/>
<path id="Vector_31" d="M45.5572 49.623C44.7047 50.8734 43.7989 52.1309 42.9487 53.4022C42.3811 52.4742 41.8367 51.5277 41.2297 50.6182C40.8544 50.0568 39.6335 50.8108 39.9324 51.4581C40.5695 52.8362 41.3224 54.133 41.9363 55.5018C42.1564 55.9821 42.9788 55.8034 43.4305 55.2466C44.7418 53.6226 45.8769 51.9035 47.0052 50.2354C47.7419 49.145 46.3009 48.5256 45.5572 49.623Z" fill="#555555"/>
<path id="Vector_32" d="M56.7584 47.9086C56.2518 48.5272 55.7398 49.1459 55.2225 49.7646C54.9028 50.1497 54.4649 50.8294 54.0178 51.2888C53.7398 50.957 53.4734 50.2448 53.3228 50.0151C53.0147 49.5233 52.7089 49.0268 52.373 48.5512C51.9513 47.955 50.6818 48.7438 51.0084 49.4421C51.4092 50.2912 51.861 51.1032 52.2919 51.9222C52.5745 52.4604 52.8201 53.2214 53.712 53.0822C54.5182 52.9592 55.1622 52.0358 55.658 51.4582C56.5105 50.4729 57.3476 49.4846 58.1693 48.4932C59.0009 47.5142 57.5669 46.9156 56.7584 47.9086Z" fill="#555555"/>
<path id="Vector_33" d="M66.9957 46.3153C66.0389 47.4057 65.0566 48.4961 64.0651 49.5958C63.6082 48.6686 63.0945 47.7706 62.5268 46.9069C62.1678 46.3779 61.2133 47.0368 61.4172 47.6423C61.862 48.9485 62.4458 50.1735 62.9786 51.4031C63.1361 51.7673 63.8172 51.7534 64.2111 51.3451C65.5246 49.9786 66.7826 48.5936 68.0127 47.2155C68.7911 46.3455 67.7625 45.436 66.9957 46.3153Z" fill="#555555"/>
<path id="Vector_34" d="M77.2121 44.3425C76.4399 45.3958 75.6491 46.4514 74.8399 47.5093C74.3246 46.6198 73.7608 45.7593 73.151 44.9318C72.7525 44.4098 71.7981 45.0594 72.0413 45.6812C72.5649 47.0059 73.2414 48.2332 73.8089 49.4999C74.0406 50.0265 74.8839 49.7713 75.3032 49.2563C76.4662 47.821 77.5843 46.3811 78.6577 44.9365C79.3875 43.9481 77.9257 43.3565 77.2121 44.3425Z" fill="#555555"/>
<path id="Vector_35" d="M89.1662 42.3097C88.1793 43.5764 87.1924 44.8617 86.1707 46.1678C85.4761 45.1857 84.7012 44.263 83.8541 43.4093C83.4093 42.9778 82.6216 43.7457 82.8602 44.2492C83.5158 45.6226 84.3869 46.8847 85.1885 48.1189C85.4201 48.4739 86.136 48.5621 86.5622 48.0609C87.9522 46.4207 89.3168 44.7851 90.5261 43.1101C91.1469 42.2447 89.8264 41.4536 89.1662 42.3097Z" fill="#555555"/>
<path id="Vector_36" d="M98.6762 40.8314C97.9812 41.7176 97.2376 42.5992 96.5078 43.4994C96.3132 43.207 96.1163 42.9124 95.9147 42.6224C95.5626 42.1213 95.3194 41.6271 94.6313 41.5297C94.4951 41.5233 94.3607 41.5621 94.2488 41.6402C94.1369 41.7182 94.054 41.8311 94.0128 41.9612C93.8019 42.6572 94.1402 43.1212 94.4112 43.671C94.7495 44.367 95.1062 45.0422 95.4004 45.7451C95.6182 46.2648 96.531 46.1465 96.9711 45.6825C98.1063 44.4877 99.1372 43.2326 100.133 41.9983C101.007 40.9056 99.5426 39.7317 98.6762 40.8314Z" fill="#555555"/>
<path id="Vector_37" d="M109.467 38.2272C108.739 39.2124 108.091 40.2552 107.53 41.3452C107.032 40.6978 106.475 40.0975 105.867 39.5519C105.404 39.1598 104.496 39.7839 104.757 40.3639C105.309 41.5749 106.113 42.6491 106.787 43.7418C107.104 44.2592 108.135 44.1478 108.471 43.475C109.2 42.0448 110.025 40.6659 110.941 39.3477C111.65 38.2968 110.255 37.1646 109.467 38.2272Z" fill="#555555"/>
<path id="Vector_38" d="M44.2089 56.2304C43.3146 57.4786 42.3787 58.736 41.5123 60.0074C40.9493 59.0794 40.4142 58.1514 39.8234 57.2442C39.4574 56.6874 38.2017 57.4414 38.4983 58.0864C39.1168 59.4552 39.8582 60.7428 40.4906 62.1023C40.7107 62.5802 41.5377 62.3993 41.9918 61.8402C43.3077 60.2162 44.4706 58.497 45.6498 56.8313C46.4213 55.7432 44.9919 55.1354 44.2089 56.2304Z" fill="#555555"/>
<path id="Vector_39" d="M55.5629 54.4676C55.027 55.0862 54.4864 55.7049 53.9413 56.3236C53.6077 56.7087 53.149 57.3861 52.6879 57.8455C52.4146 57.516 52.1667 56.8108 52.0277 56.5834C51.7312 56.0939 51.4393 55.602 51.1172 55.1311C50.7141 54.5395 49.4029 55.3306 49.7133 56.0243C50.0886 56.8664 50.5265 57.6715 50.9435 58.4858C51.2169 59.0194 51.4555 59.7757 52.3543 59.6342C53.1675 59.5089 53.8301 58.5832 54.3444 58.0102C55.2247 57.025 56.0973 56.0374 56.9622 55.0476C57.8356 54.0569 56.4178 53.4746 55.5629 54.4676Z" fill="#555555"/>
<path id="Vector_40" d="M65.96 52.8274C64.9384 53.9178 63.8982 55.0082 62.8626 56.1056C62.4352 55.1901 61.9541 54.3007 61.4217 53.4422C61.0858 52.9179 60.0896 53.5768 60.2633 54.1777C60.6796 55.4464 61.1622 56.6924 61.7089 57.9105C61.8572 58.2725 62.5453 58.2539 62.9507 57.8456C64.3082 56.4814 65.6287 55.0964 66.9353 53.7206C67.7693 52.8506 66.7824 51.9505 65.96 52.8274Z" fill="#555555"/>
<path id="Vector_41" d="M76.3921 50.8083C75.5442 51.8585 74.6855 52.9118 73.816 53.9682C73.3416 53.09 72.8204 52.2381 72.2545 51.4162C71.8839 50.8988 70.8784 51.5484 71.0962 52.1655C71.548 53.481 72.1735 54.699 72.697 55.9541C72.9148 56.4761 73.772 56.2162 74.2121 55.7035C75.4477 54.2682 76.6508 52.8306 77.8215 51.3906C78.6161 50.4116 77.1821 49.8316 76.3921 50.8083Z" fill="#555555"/>
<path id="Vector_42" d="M88.6241 48.7316C87.5237 49.9937 86.4325 51.2836 85.3252 52.5805C84.685 51.6106 83.9635 50.697 83.1684 49.8498C82.7514 49.4276 81.8965 50.1909 82.105 50.692C82.6703 52.0539 83.4788 53.3043 84.2248 54.527C84.4402 54.8773 85.1514 54.9608 85.6148 54.4597C87.1021 52.8218 88.5824 51.1908 89.9353 49.5204C90.6303 48.6574 89.3631 47.8802 88.6241 48.7316Z" fill="#555555"/>
<path id="Vector_43" d="M98.3702 47.2223C97.5779 48.1039 96.7485 48.9855 95.9493 49.8811C95.7763 49.5918 95.5995 49.3026 95.4188 49.0134C95.106 48.5169 94.9021 48.0297 94.2164 47.9369C94.0755 47.9327 93.9367 47.9715 93.8184 48.0482C93.7001 48.1249 93.6078 48.2357 93.5538 48.3661C93.2805 49.0621 93.5863 49.5145 93.8156 50.0643C94.1052 50.7603 94.4133 51.4215 94.6705 52.1199C94.8581 52.6326 95.7848 52.5119 96.2597 52.0503C97.4852 50.8555 98.625 49.605 99.7347 48.3707C100.729 47.2803 99.3548 46.1203 98.3702 47.2223Z" fill="#555555"/>
<path id="Vector_44" d="M109.564 44.5751C108.722 45.5482 107.959 46.587 107.282 47.6816C106.84 47.0422 106.336 46.4484 105.777 45.9091C105.357 45.5217 104.361 46.1527 104.57 46.7211C105.01 47.9206 105.728 48.9808 106.321 50.0642C106.601 50.577 107.651 50.461 108.045 49.7905C108.909 48.3541 109.875 46.9811 110.933 45.6818C111.765 44.6331 110.486 43.5172 109.564 44.5751Z" fill="#555555"/>
<path id="Vector_45" d="M42.7795 62.8198C41.8875 64.068 40.9678 65.3278 40.1315 66.5991C39.5408 65.685 38.9848 64.7431 38.3778 63.8522C38.0025 63.3001 36.7561 64.061 37.0596 64.699C37.706 66.0609 38.4867 67.3415 39.1747 68.6964C39.4064 69.1604 40.2404 68.9841 40.6736 68.425C41.9339 66.801 43.0621 65.0772 44.2343 63.4114C45.0011 62.321 43.5532 61.7248 42.7795 62.8198Z" fill="#555555"/>
<path id="Vector_46" d="M54.21 60.9963L52.5883 62.8523C52.2547 63.2374 51.7983 63.9149 51.3396 64.3765C51.0616 64.0494 50.8045 63.3465 50.6631 63.1214C50.362 62.6365 50.0678 62.147 49.7365 61.6784C49.3334 61.0914 48.0106 61.8872 48.3256 62.5762C48.7079 63.4161 49.1573 64.2141 49.5905 65.0238C49.8732 65.5528 50.1303 66.3068 51.0315 66.1629C51.8446 66.0307 52.4933 65.105 53.003 64.5389C53.8725 63.5506 54.7451 62.5615 55.6208 61.5717C56.4919 60.581 55.0694 60.0034 54.21 60.9963Z" fill="#555555"/>
<path id="Vector_47" d="M64.6905 59.3102C63.6411 60.4006 62.587 61.4911 61.5445 62.5907C61.1149 61.6829 60.6362 60.7992 60.1105 59.9436C59.7792 59.4263 58.7645 60.0875 58.9522 60.6837C59.362 61.9499 59.8494 63.1896 60.4117 64.3957C60.5669 64.7553 61.2549 64.7344 61.6603 64.3238C63.011 62.9573 64.3407 61.5699 65.6751 60.1919C66.5091 59.3219 65.5361 58.4333 64.6905 59.3102Z" fill="#555555"/>
<path id="Vector_48" d="M75.2499 57.2518C74.3603 58.302 73.4715 59.3553 72.5834 60.4117C72.1195 59.5418 71.6114 58.6962 71.0614 57.8782C70.7023 57.3655 69.6714 58.0174 69.8683 58.6299C70.2945 59.9361 70.9085 61.1448 71.4343 62.3953C71.6521 62.9126 72.5139 62.6505 72.9587 62.1354C74.2051 60.6986 75.4406 59.2617 76.6654 57.8249C77.5017 56.8412 76.0769 56.2705 75.2499 57.2518Z" fill="#555555"/>
<path id="Vector_49" d="M87.6626 55.117C86.5042 56.3791 85.3459 57.669 84.1991 58.9636C83.5821 58.0042 82.8846 57.0993 82.1141 56.2585C81.711 55.8385 80.8191 56.6041 81.0137 57.1006C81.5373 58.4532 82.3226 59.6921 83.0593 60.9054C83.2702 61.2534 83.986 61.3323 84.4493 60.8335C85.9714 59.1933 87.5073 57.5623 88.9437 55.8942C89.6896 55.0312 88.4502 54.2656 87.6626 55.117Z" fill="#555555"/>
<path id="Vector_50" d="M97.578 53.5639C96.7278 54.4432 95.8544 55.3248 94.9996 56.2203C94.8374 55.9327 94.6753 55.645 94.5061 55.3596C94.2142 54.8678 94.0428 54.3852 93.3478 54.2947C93.2031 54.2934 93.0609 54.3332 92.9379 54.4096C92.8148 54.486 92.716 54.5958 92.6528 54.7263C92.3424 55.4223 92.632 55.8677 92.8428 56.4129C93.1046 57.095 93.3941 57.7608 93.6304 58.4522C93.8042 58.9626 94.7424 58.8373 95.2359 58.3756C96.5077 57.1808 97.7055 55.9303 98.8962 54.6984C99.9503 53.608 98.6391 52.4643 97.578 53.5639Z" fill="#555555"/>
<path id="Vector_51" d="M109.062 50.8777C108.141 51.84 107.301 52.8758 106.548 53.9749C106.14 53.3435 105.668 52.7557 105.14 52.221C104.741 51.8382 103.692 52.4716 103.865 53.0353C104.236 54.2232 104.903 55.2741 105.452 56.3483C105.714 56.8564 106.777 56.7357 107.206 56.0652C108.154 54.6221 109.21 53.2525 110.364 51.9681C111.279 50.9218 110.076 49.8221 109.062 50.8777Z" fill="#555555"/>
<path id="Vector_52" d="M41.5032 69.394C40.6599 70.6444 39.8028 71.9089 39.0429 73.1849C38.3919 72.2731 37.7826 71.3405 37.1293 70.4519C36.7285 69.9021 35.5077 70.6676 35.8505 71.3033C36.571 72.6605 37.4351 73.9342 38.2251 75.2868C38.5031 75.7508 39.3139 75.5698 39.7101 75.0084C40.8684 73.3844 41.8878 71.6467 42.9905 69.9786C43.7133 68.8859 42.2445 68.2966 41.5032 69.394Z" fill="#555555"/>
<path id="Vector_53" d="M52.9126 67.5131C52.3859 68.1318 51.8632 68.7543 51.3442 69.3807C51.0245 69.7682 50.5936 70.4479 50.1581 70.9096C49.8615 70.5848 49.572 69.8842 49.4237 69.6615C49.0994 69.1789 48.7843 68.6917 48.4438 68.2277C48.0175 67.6431 46.7155 68.4435 47.0538 69.1302C47.4731 69.9654 47.9596 70.7542 48.4438 71.5662C48.7542 72.0928 49.0553 72.8445 49.9519 72.696C50.7604 72.5591 51.3581 71.6311 51.8423 71.0535C52.6686 70.0605 53.5049 69.0691 54.3513 68.0792C55.1992 67.0909 53.7582 66.5225 52.9126 67.5131Z" fill="#555555"/>
<path id="Vector_54" d="M63.4141 65.778C62.3785 66.8707 61.3476 67.9657 60.3422 69.0677C59.8603 68.1676 59.3808 67.2697 58.8224 66.4345C58.4773 65.9195 57.4718 66.5853 57.6641 67.1792C58.1149 68.4455 58.6497 69.6802 59.2649 70.875C59.4387 71.2323 60.129 71.2068 60.5159 70.7961C61.8109 69.4227 63.099 68.033 64.4102 66.6526C65.2396 65.7803 64.2481 64.8987 63.4141 65.778Z" fill="#555555"/>
<path id="Vector_55" d="M74.0106 63.6671C73.121 64.7173 72.2406 65.7714 71.3696 66.8293C70.8645 65.9732 70.3757 65.1079 69.8012 64.3121C69.4352 63.8017 68.4112 64.4583 68.6104 65.0684C69.0552 66.3676 69.7016 67.5694 70.2692 68.8129C70.5008 69.3279 71.3603 69.0635 71.7935 68.5461C73.0013 67.1077 74.216 65.6685 75.4376 64.2286C76.274 63.2426 74.8423 62.6835 74.0106 63.6671Z" fill="#555555"/>
<path id="Vector_56" d="M86.5112 61.4793C85.3182 62.7414 84.1668 64.0313 83.0362 65.3305C82.4023 64.3771 81.6918 63.4771 80.9119 62.6393C80.5064 62.224 79.6053 62.9919 79.8022 63.4861C80.3327 64.827 81.1389 66.059 81.9034 67.2654C82.1235 67.611 82.8532 67.6853 83.3096 67.1865C84.8039 65.5439 86.3375 63.9083 87.7947 62.2402C88.5499 61.3772 87.3151 60.6209 86.5112 61.4793Z" fill="#555555"/>
<path id="Vector_57" d="M96.5238 59.8748C95.6458 60.7564 94.7539 61.638 93.8874 62.5335C93.7253 62.2482 93.5631 61.9628 93.3963 61.6821C93.109 61.1926 92.933 60.7123 92.238 60.6265C92.0934 60.6275 91.952 60.6686 91.8293 60.7452C91.7066 60.8217 91.6075 60.9308 91.543 61.0603C91.2209 61.7563 91.5082 62.1948 91.7167 62.7377C91.9762 63.4151 92.2658 64.0763 92.509 64.7654C92.6874 65.2735 93.6303 65.1435 94.1307 64.6795C95.4025 63.4824 96.6188 62.2319 97.8373 61C98.9215 59.9073 97.6173 58.7751 96.5238 59.8748Z" fill="#555555"/>
<path id="Vector_58" d="M108.188 57.1401C107.225 58.0962 106.344 59.1315 105.554 60.2349C105.159 59.6095 104.699 59.0271 104.183 58.4973C103.796 58.1191 102.716 58.7548 102.876 59.3139C103.217 60.4948 103.87 61.5388 104.414 62.6037C104.672 63.1094 105.742 62.9818 106.182 62.3137C107.161 60.8667 108.255 59.5012 109.453 58.2305C110.412 57.1749 109.254 56.0868 108.188 57.1401Z" fill="#555555"/>
<path id="Vector_59" d="M40.6112 75.9689C39.863 77.2263 39.1124 78.493 38.4776 79.776C37.7363 78.8665 37.0413 77.9385 36.3115 77.05C35.8644 76.5025 34.7061 77.282 35.1022 77.9107C35.9455 79.2656 36.937 80.5369 37.8822 81.8849C38.2135 82.3489 39.0035 82.1633 39.3394 81.5972C40.3147 79.9616 41.1927 78.2216 42.1588 76.5442C42.7889 75.4492 41.2761 74.8692 40.6112 75.9689Z" fill="#555555"/>
<path id="Vector_60" d="M51.9234 74.0287C51.4369 74.6551 50.9566 75.2807 50.4824 75.9055C50.1882 76.293 49.8106 76.9751 49.4121 77.4414C49.0878 77.1166 48.7426 76.4183 48.5758 76.1955C48.2144 75.713 47.8623 75.2304 47.4893 74.7664C47.026 74.1864 45.768 74.9984 46.1642 75.6782C46.646 76.5111 47.1974 77.3022 47.7465 78.1049C48.1055 78.6315 48.4762 79.3832 49.3681 79.2278C50.1651 79.0886 50.6817 78.1559 51.1172 77.5736C51.8632 76.5776 52.6277 75.5815 53.4107 74.5855C54.1891 73.5902 52.7111 73.0311 51.9234 74.0287Z" fill="#555555"/>
<path id="Vector_61" d="M62.3601 72.2354C61.3778 73.3328 60.4118 74.4302 59.4828 75.5391C58.9337 74.6436 58.3963 73.7457 57.7893 72.9175C57.414 72.4025 56.441 73.073 56.6727 73.6669C57.2078 74.9378 57.8326 76.1689 58.5422 77.351C58.7461 77.7083 59.4365 77.6805 59.7909 77.2675C60.977 75.8871 62.1747 74.4835 63.4095 73.1031C64.1902 72.2262 63.1547 71.3515 62.3601 72.2354Z" fill="#555555"/>
<path id="Vector_62" d="M72.901 70.0652C72.05 71.1185 71.2175 72.1756 70.4036 73.2366C69.8476 72.3852 69.3148 71.5245 68.7032 70.731C68.314 70.2253 67.3016 70.8865 67.5448 71.4943C68.0568 72.7889 68.775 73.986 69.4283 75.2249C69.6993 75.7399 70.5403 75.4685 70.9388 74.9511C72.0523 73.5065 73.1936 72.0619 74.3628 70.6174C75.1574 69.636 73.7025 69.0862 72.901 70.0652Z" fill="#555555"/>
<path id="Vector_63" d="M85.3923 67.8126C84.234 69.0793 83.1127 70.3646 82.0262 71.6754C81.3519 70.7308 80.6068 69.8389 79.7976 69.0074C79.3783 68.5944 78.4979 69.3647 78.7134 69.8588C79.2948 71.1952 80.1636 72.4108 80.9999 73.6196C81.2316 73.9629 81.9775 74.0348 82.4061 73.5314C83.8147 71.8842 85.2858 70.244 86.7036 68.5736C87.4379 67.7082 86.18 66.9612 85.3923 67.8126Z" fill="#555555"/>
<path id="Vector_64" d="M95.4282 66.1687C94.5571 67.0503 93.6791 67.9343 92.8335 68.8321C92.6621 68.5491 92.493 68.2637 92.3192 67.9853C92.0181 67.4981 91.8351 67.0202 91.1401 66.939C90.995 66.9392 90.853 66.9801 90.7301 67.0573C90.6072 67.1344 90.5085 67.2445 90.4451 67.3751C90.1346 68.0711 90.4451 68.5073 90.6605 69.0455C90.9431 69.7207 91.2582 70.3795 91.5269 71.0663C91.7285 71.572 92.6691 71.4375 93.1486 70.9711C94.3788 69.7694 95.5626 68.5143 96.7649 67.28C97.826 66.1873 96.5194 65.0644 95.4282 66.1687Z" fill="#555555"/>
<path id="Vector_65" d="M107.15 63.3824C106.179 64.3333 105.295 65.3699 104.509 66.4796C104.108 65.8577 103.642 65.2799 103.119 64.7558C102.73 64.38 101.644 65.018 101.81 65.5748C102.163 66.751 102.837 67.7858 103.411 68.846C103.685 69.3471 104.755 69.2172 105.181 68.5467C106.137 67.0863 107.223 65.7151 108.425 64.4496C109.393 63.4033 108.237 62.3268 107.15 63.3824Z" fill="#555555"/>
<path id="Vector_66" d="M40.3378 82.5627C39.7285 83.8248 39.1331 85.1008 38.6628 86.3907C37.8033 85.4836 36.9925 84.5556 36.1562 83.6693C35.6442 83.1241 34.5739 83.9013 35.0488 84.5393C36.0589 85.8919 37.2195 87.1609 38.3477 88.5112C38.7485 88.9752 39.5061 88.7826 39.7655 88.2142C40.5115 86.5647 41.1556 84.8154 41.9432 83.1288C42.4598 82.0268 40.8822 81.456 40.3378 82.5627Z" fill="#555555"/>
<path id="Vector_67" d="M51.4671 80.5513C51.0409 81.1777 50.6239 81.8088 50.2185 82.4375C49.9659 82.8272 49.6648 83.514 49.3219 83.9826C48.9582 83.6601 48.5319 82.9618 48.3396 82.7391C47.925 82.2588 47.5219 81.7763 47.0979 81.3146C46.5697 80.7346 45.3975 81.5466 45.8678 82.2426C46.4423 83.0732 47.0863 83.8666 47.7211 84.667C48.1427 85.1936 48.6107 85.9453 49.4771 85.7829C50.2555 85.6391 50.6563 84.7018 51.027 84.1172C51.654 83.1118 52.3096 82.1065 52.9938 81.1012C53.6934 80.0989 52.1575 79.5468 51.4671 80.5513Z" fill="#555555"/>
<path id="Vector_68" d="M61.7577 78.6963C60.8704 79.8007 60.0086 80.905 59.1955 82.0209C58.5515 81.1254 57.9236 80.2322 57.2379 79.4039C56.814 78.8935 55.9012 79.5687 56.1885 80.1603C56.8543 81.4405 57.6115 82.671 58.4542 83.8421C58.6997 84.1994 59.3808 84.1669 59.6936 83.7493C60.7245 82.3573 61.7786 80.9537 62.8883 79.5594C63.5902 78.6778 62.4782 77.8078 61.7577 78.6963Z" fill="#555555"/>
<path id="Vector_69" d="M72.1526 76.4739C71.3803 77.5318 70.6328 78.5936 69.91 79.6593C69.2753 78.8125 68.6683 77.9517 67.9918 77.1629C67.5632 76.6595 66.6018 77.3253 66.8891 77.9332C67.5077 79.2254 68.3393 80.4202 69.12 81.6568C69.4467 82.1695 70.2599 81.8888 70.6074 81.3737C71.5804 79.9214 72.5958 78.4699 73.6538 77.0191C74.3812 76.0261 72.8846 75.4833 72.1526 76.4739Z" fill="#555555"/>
<path id="Vector_70" d="M84.5351 74.1498C83.437 75.4211 82.4107 76.7227 81.4284 78.0265C80.6774 77.0901 79.8656 76.2043 78.9982 75.3747C78.5488 74.9641 77.7148 75.739 77.9673 76.2285C78.6484 77.5625 79.6191 78.7805 80.5689 79.9799C80.6626 80.075 80.7756 80.1488 80.9003 80.1962C81.025 80.2435 81.1584 80.2634 81.2915 80.2543C81.4246 80.2453 81.5541 80.2076 81.6713 80.1438C81.7885 80.0801 81.8905 79.9917 81.9705 79.8848C83.2331 78.226 84.5814 76.5788 85.8973 74.9015C86.5784 74.0315 85.2764 73.2937 84.5351 74.1498Z" fill="#555555"/>
<path id="Vector_71" d="M94.5199 72.4485C93.6859 73.3347 92.8542 74.2233 92.0619 75.1234C91.872 74.8427 91.6843 74.5597 91.4944 74.2813C91.1631 73.7964 90.9546 73.3208 90.2526 73.2419C90.1089 73.241 89.968 73.2823 89.8474 73.3606C89.7268 73.439 89.6317 73.5509 89.5738 73.6827C89.3005 74.3787 89.6294 74.8125 89.8912 75.3508C90.2179 76.0236 90.5862 76.6801 90.9013 77.3645C91.133 77.8703 92.0735 77.7288 92.523 77.2601C93.6674 76.0537 94.7724 74.7917 95.9146 73.5481C96.9223 72.4554 95.5647 71.3441 94.5199 72.4485Z" fill="#555555"/>
<path id="Vector_72" d="M106.187 69.6011C105.241 70.55 104.392 71.5906 103.652 72.7076C103.218 72.09 102.725 71.5158 102.181 70.9931C101.773 70.6219 100.708 71.2645 100.898 71.819C101.303 72.9906 102.035 74.0207 102.675 75.067C102.978 75.5681 104.044 75.4312 104.433 74.7608C105.311 73.2945 106.337 71.9217 107.493 70.6636C108.436 69.6173 107.248 68.5478 106.187 69.6011Z" fill="#555555"/>
<path id="Vector_73" d="M40.9146 89.1723C40.4756 90.4338 40.1188 91.7226 39.8466 93.0305C38.8342 92.1233 37.8751 91.1953 36.9068 90.3114C36.3114 89.7639 35.3569 90.555 35.9315 91.1907C37.1547 92.5433 38.5261 93.8146 39.8953 95.1672C39.9906 95.2733 40.1124 95.352 40.2482 95.3953C40.384 95.4386 40.5288 95.4449 40.6679 95.4134C40.8069 95.382 40.935 95.314 41.039 95.2165C41.1431 95.119 41.2193 94.9954 41.2598 94.8586C41.7231 93.1952 42.0822 91.432 42.615 89.7337C42.9579 88.6225 41.2992 88.0564 40.9146 89.1723Z" fill="#555555"/>
<path id="Vector_74" d="M51.7683 87.094C51.4254 87.7281 51.0965 88.3614 50.7814 88.994C50.5845 89.3884 50.3853 90.0798 50.1119 90.5507C49.6995 90.2283 49.1713 89.53 48.9536 89.3072C48.4671 88.8293 47.9945 88.3468 47.508 87.8851C46.901 87.3051 45.8376 88.1333 46.4075 88.8131C47.1025 89.6436 47.8624 90.4371 48.6339 91.2375C49.1389 91.7641 49.7273 92.5158 50.5683 92.3487C51.3235 92.2003 51.5737 91.256 51.8563 90.6644C52.332 89.6529 52.8432 88.6422 53.39 87.6322C53.9367 86.6276 52.3289 86.0731 51.7683 87.094Z" fill="#555555"/>
<path id="Vector_75" d="M61.8341 85.173C61.0789 86.282 60.363 87.3979 59.7051 88.5208C58.9336 87.6276 58.1877 86.732 57.3884 85.9084C56.9019 85.3957 56.0702 86.0801 56.4386 86.6717C57.2793 87.9625 58.2082 89.1935 59.2186 90.3559C59.3011 90.4437 59.4025 90.5116 59.515 90.5545C59.6275 90.5975 59.7482 90.6143 59.8682 90.6038C59.9881 90.5933 60.1041 90.5558 60.2075 90.4939C60.3108 90.4321 60.3989 90.3476 60.465 90.2468C61.2874 88.8432 62.1469 87.4257 63.0828 86.0198C63.1451 85.938 63.1902 85.8443 63.2151 85.7444C63.24 85.6446 63.2443 85.5407 63.2277 85.4391C63.2112 85.3375 63.1741 85.2404 63.1187 85.1537C63.0634 85.067 62.991 84.9925 62.9059 84.9348C62.8208 84.8771 62.7248 84.8373 62.6238 84.8181C62.5229 84.7988 62.4191 84.8004 62.3187 84.8227C62.2184 84.845 62.1237 84.8875 62.0403 84.9478C61.957 85.008 61.8868 85.0847 61.8341 85.173Z" fill="#555555"/>
<path id="Vector_76" d="M71.9882 82.8848C71.3256 83.9473 70.7016 85.0161 70.1163 86.091C69.3726 85.2442 68.6614 84.3858 67.8969 83.5993C67.4104 83.0959 66.5185 83.7687 66.8799 84.3765C67.6514 85.6665 68.6383 86.8613 69.5881 88.0885C69.9866 88.6036 70.7603 88.3205 71.0383 87.7962C71.8106 86.3315 72.6484 84.8699 73.5519 83.4114C74.1705 82.4231 72.6137 81.8941 71.9882 82.8848Z" fill="#555555"/>
<path id="Vector_77" d="M84.1575 80.4914C83.1775 81.7674 82.2833 83.0782 81.4516 84.3913C80.594 83.459 79.6844 82.5759 78.7272 81.7465C78.2361 81.3382 77.4785 82.12 77.782 82.6095C78.6068 83.9412 79.7234 85.1615 80.8238 86.354C81.1412 86.6951 81.8941 86.76 82.2138 86.2496C83.2679 84.5792 84.4355 82.9227 85.5915 81.2361C86.1938 80.3615 84.8224 79.6283 84.1575 80.4914Z" fill="#555555"/>
<path id="Vector_78" d="M94.0174 78.7315C93.2552 79.6223 92.5 80.5155 91.7934 81.4227C91.5779 81.1419 91.3625 80.8589 91.1447 80.5805C90.7671 80.1003 90.5169 79.6223 89.8057 79.5504C89.6658 79.5476 89.5286 79.5889 89.4135 79.6684C89.2983 79.7479 89.211 79.8616 89.164 79.9935C88.9555 80.6895 89.3261 81.1257 89.6412 81.6616C90.035 82.3344 90.4659 82.9887 90.8667 83.6731C91.1609 84.1765 92.0806 84.0303 92.4722 83.5594C93.4869 82.3437 94.4714 81.0747 95.5047 79.8288C96.4244 78.7245 94.9834 77.6202 94.0174 78.7315Z" fill="#555555"/>
<path id="Vector_79" d="M105.508 75.8247C104.622 76.7745 103.845 77.8204 103.191 78.9428C102.706 78.3283 102.168 77.7577 101.584 77.2376C101.148 76.8687 100.124 77.516 100.36 78.0705C100.856 79.2305 101.681 80.2652 102.422 81.3185C102.777 81.8173 103.831 81.6758 104.155 81.0007C104.904 79.5222 105.824 78.1369 106.896 76.8734C107.762 75.8224 106.509 74.7599 105.508 75.8247Z" fill="#555555"/>
<path id="Vector_80" d="M42.5664 95.8162C42.3483 97.1027 42.2321 98.4044 42.2189 99.7092C41.0259 98.7997 39.8884 97.8694 38.7439 96.9832C38.0489 96.438 37.2381 97.2384 37.9354 97.8764C39.4158 99.2336 41.0421 100.507 42.6915 101.862C43.2753 102.338 43.9541 102.124 43.9912 101.544C44.1001 99.8623 44.1209 98.0828 44.3433 96.3707C44.5101 95.2524 42.7541 94.6933 42.5664 95.8162Z" fill="#555555"/>
<path id="Vector_81" d="M53.0517 93.6602C52.8201 94.3006 52.5884 94.9386 52.3915 95.5789C52.2664 95.9756 52.1922 96.6739 52.0069 97.1518C51.532 96.8294 50.8764 96.1287 50.6169 95.906C50.047 95.4258 49.4887 94.9432 48.9211 94.4815C48.2261 93.9038 47.2994 94.739 47.9944 95.4258C48.8331 96.2563 49.7412 97.0498 50.6656 97.8525C51.2679 98.3814 52.0046 99.1354 52.8108 98.9638C53.5382 98.806 53.6054 97.8525 53.7792 97.2562C54.0664 96.2354 54.3969 95.2154 54.7707 94.1962C55.1367 93.18 53.4502 92.6394 53.0517 93.6602Z" fill="#555555"/>
<path id="Vector_82" d="M62.8142 91.6745C62.235 92.7951 61.7022 93.9179 61.2389 95.0547C60.3122 94.1592 59.4156 93.2637 58.4913 92.4378C58.4405 92.3834 58.3795 92.3396 58.3118 92.3088C58.244 92.278 58.1709 92.2609 58.0966 92.2584C58.0223 92.2559 57.9482 92.2682 57.8786 92.2944C57.809 92.3205 57.7452 92.3602 57.6909 92.4111C57.6366 92.462 57.5928 92.5231 57.5621 92.5909C57.5313 92.6587 57.5143 92.7319 57.5118 92.8063C57.5093 92.8808 57.5215 92.955 57.5477 93.0247C57.5738 93.0944 57.6134 93.1583 57.6642 93.2127C58.7283 94.5134 59.8727 95.7462 61.0906 96.9038C61.4566 97.2611 62.1331 97.2193 62.2999 96.7947C62.8652 95.3772 63.4791 93.9481 64.1903 92.5282C64.6351 91.6397 63.2891 90.772 62.8142 91.6745Z" fill="#555555"/>
<path id="Vector_83" d="M72.6297 89.3207C72.1185 90.3926 71.6552 91.4698 71.2397 92.5525C70.3594 91.7057 69.5161 90.8473 68.6358 90.0631C68.5313 89.9448 68.3843 89.8726 68.2268 89.8623C68.0694 89.8521 67.9143 89.9046 67.7953 90.0084C67.6764 90.1122 67.6033 90.2589 67.5919 90.4164C67.5805 90.574 67.6318 90.7297 67.7346 90.8496C68.703 92.1418 69.8821 93.3366 71.0451 94.5755C71.1437 94.6788 71.2672 94.755 71.4036 94.7968C71.5401 94.8387 71.685 94.8448 71.8244 94.8145C71.9639 94.7843 72.0933 94.7187 72.2002 94.624C72.3071 94.5294 72.388 94.4088 72.4351 94.2739C72.9633 92.7968 73.5711 91.3229 74.2583 89.852C74.7471 88.8428 73.1162 88.3162 72.6297 89.3207Z" fill="#555555"/>
<path id="Vector_84" d="M84.4842 86.8436C83.6857 88.1107 82.9624 89.4238 82.3181 90.776C81.2942 89.848 80.2818 88.92 79.2161 88.1359C78.6694 87.7299 78.0161 88.5163 78.3891 89.0082C79.4014 90.3399 80.7057 91.5602 81.9961 92.7503C82.3691 93.0937 83.1336 93.1517 83.3722 92.639C84.1599 90.9547 85.0865 89.2819 86.0178 87.5837C86.5043 86.7021 85.0425 85.9759 84.4842 86.8436Z" fill="#555555"/>
<path id="Vector_85" d="M94.1401 85.0239C93.4822 85.9217 92.8382 86.8196 92.252 87.7336L91.4922 86.8938C91.052 86.4135 90.7416 85.9379 90.0211 85.866C89.8863 85.8605 89.7538 85.9026 89.6467 85.9848C89.5396 86.067 89.4647 86.1843 89.435 86.3161C89.3122 87.0121 89.7408 87.4506 90.13 87.9865C90.6142 88.6593 91.1377 89.3135 91.6358 89.9979C92.0042 90.5037 92.903 90.3506 93.2274 89.875C94.066 88.6477 94.8815 87.3694 95.7757 86.1143C96.5472 85.0007 94.9834 83.9033 94.1401 85.0239Z" fill="#555555"/>
<path id="Vector_86" d="M105.337 82.0478C104.544 83.0036 103.878 84.0579 103.356 85.1845C102.8 84.5724 102.197 84.0046 101.553 83.4862C101.078 83.1197 100.122 83.7739 100.418 84.3284C101.048 85.4884 101.998 86.5208 102.879 87.5764C103.298 88.0752 104.333 87.9267 104.572 87.2493C105.131 85.7663 105.893 84.3685 106.838 83.0965C107.593 82.0339 106.238 80.969 105.337 82.0478Z" fill="#555555"/>
<path id="Vector_87" d="M45.5224 102.507C45.5805 103.834 45.7541 105.154 46.0413 106.451C44.6398 105.537 43.2938 104.595 41.9686 103.718C41.1532 103.17 40.5184 103.985 41.357 104.625C43.1386 105.984 45.0637 107.263 47.0375 108.625C47.7325 109.103 48.3626 108.884 48.2584 108.295C47.9619 106.595 47.575 104.797 47.429 103.066C47.3433 101.924 45.4714 101.37 45.5224 102.507Z" fill="#555555"/>
<path id="Vector_88" d="M55.5606 100.272C55.4518 100.917 55.3637 101.562 55.2988 102.212C55.2548 102.613 55.329 103.316 55.2502 103.799C54.7058 103.476 53.8996 102.773 53.5892 102.55C52.915 102.07 52.2571 101.585 51.5968 101.124C50.7721 100.544 50.0215 101.393 50.8555 102.079C51.8702 102.915 52.9405 103.703 54.0525 104.518C54.7707 105.047 55.6741 105.803 56.4456 105.624C57.1406 105.462 56.9877 104.499 57.0294 103.896C57.0915 102.859 57.2067 101.826 57.3746 100.801C57.5507 99.7734 55.7483 99.2398 55.5606 100.272Z" fill="#555555"/>
<path id="Vector_89" d="M64.9222 98.209C64.555 99.3294 64.2541 100.471 64.021 101.626C62.909 100.729 61.834 99.8307 60.7498 99.0048C60.0803 98.492 59.4919 99.195 60.0757 99.7889C61.4026 101.103 62.8018 102.343 64.2665 103.501C64.709 103.861 65.3739 103.814 65.4504 103.385C65.703 101.926 66.0402 100.483 66.4604 99.0628C66.7361 98.158 65.2256 97.2972 64.9222 98.209Z" fill="#555555"/>
<path id="Vector_90" d="M74.3025 95.7802C73.9829 96.8535 73.7208 97.9432 73.5171 99.0445C72.4723 98.1954 71.4692 97.337 70.4452 96.5505C69.7966 96.0494 69.1224 96.7384 69.69 97.3486C70.8993 98.6454 72.3102 99.8426 73.7256 101.084C74.3164 101.601 74.9813 101.316 75.0624 100.771C75.2941 99.2635 75.6206 97.7727 76.04 96.3069C76.3342 95.2907 74.6129 94.7687 74.3025 95.7802Z" fill="#555555"/>
<path id="Vector_91" d="M85.7353 93.2217C85.1412 94.5045 84.6455 95.8307 84.2526 97.1889C83.0595 96.2609 81.8827 95.3329 80.6826 94.551C80.0664 94.145 79.5452 94.9408 80.0062 95.4326C81.2525 96.7666 82.7862 97.9846 84.3036 99.1818C84.7414 99.5251 85.5152 99.5785 85.6542 99.0588C86.1175 97.3582 86.743 95.6693 87.3917 93.9548C87.7323 93.0686 86.1546 92.3354 85.7353 93.2217Z" fill="#555555"/>
<path id="Vector_92" d="M95.1108 91.339C94.5872 92.2438 94.0845 93.1509 93.6513 94.0743L92.7524 93.2321C92.2358 92.7519 91.8512 92.274 91.1192 92.209C91.0545 92.2043 90.9897 92.2127 90.9283 92.2336C90.867 92.2546 90.8106 92.2877 90.7624 92.3311C90.7141 92.3744 90.6751 92.427 90.6477 92.4857C90.6202 92.5445 90.6049 92.6082 90.6025 92.673C90.6025 93.369 91.0937 93.8121 91.5686 94.3481C92.1663 95.0209 92.8034 95.6774 93.4219 96.3641C93.8853 96.8699 94.7517 96.7121 94.9903 96.2319C95.6135 94.9907 96.2135 93.7008 96.8992 92.4341C97.5108 91.3019 95.7757 90.2092 95.1108 91.339Z" fill="#555555"/>
<path id="Vector_93" d="M105.89 88.2848C105.22 89.2535 104.702 90.3191 104.354 91.4447C103.707 90.8364 103.021 90.2699 102.302 89.7488C101.773 89.3845 100.912 90.0457 101.287 90.6002C102.088 91.7602 103.201 92.7949 104.252 93.8482C104.755 94.347 105.765 94.1916 105.892 93.5072C106.205 92.0339 106.759 90.6227 107.533 89.3312C108.142 88.257 106.65 87.206 105.89 88.2848Z" fill="#555555"/>
<path id="Vector_94" d="M109.205 6.53843C109.326 6.51689 109.434 6.44809 109.504 6.34715C109.575 6.24621 109.602 6.1214 109.581 6.00019C109.559 5.87897 109.49 5.77128 109.39 5.70079C109.289 5.63031 109.164 5.60281 109.043 5.62435C93.3917 7.11843 88.1259 8.13459 72.6112 10.5868C59.5383 12.8071 46.1016 15.1363 33.0565 17.6443C32.9362 17.6668 32.8298 17.7361 32.7604 17.8369C32.6909 17.9377 32.6641 18.062 32.6858 18.1825L33.0912 20.4723C33.1122 20.5926 33.1796 20.6997 33.2789 20.7705C33.3782 20.8413 33.5014 20.87 33.6217 20.8505C46.7271 18.7323 60.1452 16.3149 73.2066 13.9207C88.6148 10.9047 93.9871 10.5033 109.205 6.53843Z" fill="#B3D6FB"/>
<path id="Vector_95" d="M34.0386 23.6136C36.1663 22.5345 37.0175 19.9325 35.94 17.8018C34.8625 15.6711 32.2642 14.8186 30.1366 15.8977C28.0089 16.9768 27.1577 19.5788 28.2352 21.7095C29.3128 23.8402 31.911 24.6926 34.0386 23.6136Z" fill="#2F80ED"/>
<path id="Vector_96" d="M43.4538 22.0392C42.4831 22.6053 41.6004 21.0347 42.5827 20.5475C44.3434 19.6775 43.0762 16.6963 42.0151 15.7404C41.3201 15.1024 40.2568 14.7173 39.3139 15.0027C38.9461 15.0973 38.6231 15.3182 38.4013 15.6269C38.1795 15.9355 38.0728 16.3123 38.1 16.6916L36.71 16.9515C36.3578 15.6755 37.3447 14.3531 38.4521 13.7916C39.8143 13.0956 41.4892 13.4065 42.6893 14.2835C44.911 15.8982 46.3334 20.3526 43.4538 22.0392Z" fill="#555555"/>
<path id="Vector_97" d="M50.8879 16.1382C50.4454 14.6465 49.616 13.2753 48.3025 12.4053C46.1688 10.9855 42.4413 11.4425 41.8621 14.3611C41.7532 14.9133 42.5571 15.3471 42.8305 14.7694C43.7734 12.7928 45.9858 12.4146 47.6376 13.8205C48.3619 14.456 48.9007 15.2762 49.1967 16.1939C49.4284 16.8899 50.0817 18.8781 49.4631 19.5161C48.6036 20.4024 50.0469 21.5925 50.8323 20.5741C51.7265 19.4117 51.2701 17.4258 50.8879 16.1382Z" fill="#555555"/>
<path id="Vector_98" d="M57.6223 18.6817C57.2656 16.0601 56.274 13.2715 53.9388 11.7774C52.1295 10.6174 49.0136 10.6174 47.8599 12.7286C47.6097 13.1926 48.1356 13.8028 48.6128 13.4826C50.3225 12.3412 52.0878 12.3226 53.6215 13.8213C55.0462 15.2296 55.3821 17.3268 55.6393 19.2292C55.8153 20.5377 57.7961 19.9809 57.6223 18.6817Z" fill="#555555"/>
<path id="Vector_99" d="M63.0921 14.821C62.8065 13.3035 62.0814 11.9036 61.0071 10.7958C58.6325 8.4271 55.5976 9.92582 53.8764 12.2157C53.5289 12.6797 54.2354 13.0926 54.6154 12.7864C56.4363 11.3155 58.607 10.1021 60.3097 12.443C60.8439 13.178 61.2216 14.015 61.4194 14.9022C61.5513 15.461 61.5632 16.0414 61.4542 16.6051C61.3546 17.0691 61.1878 17.3521 61.2225 17.8277C61.2573 18.3033 61.7553 18.6769 62.2117 18.3961C63.3423 17.7001 63.3075 16.0065 63.0921 14.821Z" fill="#555555"/>
<path id="Vector_100" d="M66.5694 9.16582C64.269 7.6207 61.7577 8.86886 60.5276 11.11C60.4677 11.2188 60.4487 11.3454 60.4741 11.467C60.4994 11.5885 60.5674 11.697 60.6657 11.7727C60.764 11.8484 60.8861 11.8864 61.0099 11.8797C61.1338 11.8731 61.2511 11.8222 61.3407 11.7364C62.0149 11.1587 62.5871 10.3676 63.4767 10.1124C63.8794 10.0116 64.3005 10.01 64.704 10.1078C65.1074 10.2056 65.4812 10.3998 65.7934 10.6738C67.3803 11.9614 66.9864 14.1167 66.4026 15.7964C66.0737 16.7406 67.6282 17.4204 68.0243 16.4924C69.1039 14.0332 68.9904 10.7921 66.5694 9.16582Z" fill="#555555"/>
<path id="Vector_101" d="M72.2405 7.85684C70.3061 6.437 66.8427 6.94972 66.3539 9.63396C66.2589 10.1652 67.0187 10.5921 67.2921 10.0307C68.2188 8.10044 70.4567 8.25588 71.71 9.78244C73.056 11.425 72.7687 13.2485 72.2706 15.1184C72.0112 16.0859 73.3479 16.6404 73.8714 15.7936C75.3981 13.3367 74.5433 9.54348 72.2405 7.85684Z" fill="#555555"/>
<path id="Vector_102" d="M80.722 11.0743C80.4744 9.50947 79.639 8.09855 78.3868 7.1303C76.3667 5.53414 72.4978 5.59678 71.7333 8.57334C71.7045 8.70115 71.7218 8.83506 71.7822 8.95132C71.8426 9.06757 71.9421 9.15866 72.0631 9.20842C72.1842 9.25819 72.3189 9.26342 72.4434 9.22318C72.5679 9.18294 72.6742 9.09985 72.7434 8.98862C73.8693 7.2231 75.9334 7.20686 77.4161 8.5571C78.1096 9.19305 78.6057 10.0153 78.8455 10.9258C79.1606 12.2157 78.5791 12.8932 77.8864 13.8676C77.4856 14.436 78.1621 15.3501 78.8246 15.0879C80.3745 14.4777 80.9305 12.6287 80.722 11.0743Z" fill="#555555"/>
<path id="Vector_103" d="M84.8364 6.49757C82.719 4.20541 79.8857 5.83869 78.3497 7.88957C77.9652 8.40229 78.7783 8.97765 79.2138 8.55773C80.62 7.19357 82.5915 5.80157 84.0464 7.94989C84.5194 8.62067 84.8513 9.3808 85.0217 10.184C85.207 11.2025 84.7483 11.808 84.5584 12.736C84.4425 13.2882 85.0217 13.8195 85.5453 13.497C87.9315 12.0656 86.2426 8.01021 84.8364 6.49757Z" fill="#555555"/>
<path id="Vector_104" d="M90.3501 5.29655C88.5524 3.02527 85.7376 4.62143 84.3268 6.41943C84.2496 6.50509 84.2081 6.61717 84.2111 6.73252C84.214 6.84788 84.2611 6.95769 84.3426 7.03929C84.424 7.12088 84.5337 7.16802 84.6489 7.17097C84.7641 7.17391 84.876 7.13244 84.9615 7.05511C86.3353 5.97863 88.1122 4.55647 89.3308 6.64215C90.1045 7.96919 90.8505 10.0758 89.7431 11.419C89.0481 12.2705 90.2621 13.507 90.964 12.6417C92.7293 10.4771 91.9718 7.35207 90.3501 5.29655Z" fill="#555555"/>
<path id="Vector_105" d="M95.0969 4.02713C93.2436 2.89497 89.8358 3.44945 89.8543 6.12673C89.8543 6.83433 90.781 6.88305 91.0127 6.28449C91.7748 4.35193 93.8436 4.95977 94.8838 6.28449C95.975 7.67649 95.836 9.06849 95.741 10.7157C95.69 11.6158 97.131 12.0613 97.5063 11.1936C98.5974 8.73441 97.3464 5.40521 95.0969 4.02713Z" fill="#555555"/>
</g>
</svg>
