<svg width="138" height="110" viewBox="0 0 138 110" fill="none" xmlns="http://www.w3.org/2000/svg">
<path d="M109.189 94.2181C109.189 94.2181 116.49 86.0678 115.878 76.9997C115.266 67.9316 45.4095 63.9062 45.4095 63.9062C45.4095 63.9062 40.5626 72.5241 39.9095 73.9609C39.2564 75.3978 32.5258 86.0334 40.3804 88.5909C48.2351 91.1484 109.258 95.5622 109.258 95.5622L109.189 94.2181Z" fill="white"/>
<path d="M115.462 82.0578L42.6766 74.5159L39.8923 74.0312C39.6963 74.4369 39.1773 75.3444 38.5998 76.5475L114.971 83.8934C115.161 83.2953 115.325 82.6834 115.462 82.0578ZM114.104 86.2516L41.4666 78.72L37.9019 78.1012C37.5457 78.9518 37.2482 79.8259 37.0116 80.7172L113.262 88.0494C113.554 87.4788 113.836 86.8737 114.104 86.2447V86.2516ZM112.004 90.3078L39.961 82.845L36.7091 82.2812C36.5782 83.1742 36.6073 84.0832 36.7951 84.9659L110.839 92.0884C111.2 91.5728 111.595 90.9712 112.004 90.3078Z" fill="#7B9BAD"/>
<path d="M31.6836 11.5199C31.6836 11.5199 20.3948 13.9467 17.4558 23.5167C14.5167 33.0867 32.2542 85.9383 35.8842 89.7402C39.5142 93.542 110.107 98.138 110.107 98.138C110.107 98.138 113.132 95.8349 110.736 93.738C108.34 91.6411 42.4361 89.2417 40.8789 86.7599C39.3217 84.278 43.0961 74.323 49.0326 72.9652C54.9692 71.6074 112.956 81.2977 116.308 79.7508C119.66 78.2039 121.079 78.0321 120.034 74.3849C118.989 70.7377 101.472 24.902 96.6764 20.7049C91.8811 16.5077 39.9576 10.9149 31.6836 11.513V11.5199Z" fill="#54ACDF"/>
<path d="M32.7869 13.0625C29.4526 15.4688 42.9688 59.125 48.4688 68.5094C42.7454 71.9091 36.2141 78.87 36.5922 88.0825C38.9744 76.1578 46.1966 71.0462 49.2629 69.3722C60.6066 71.0325 110.729 78.8906 117.941 75.3534C117.941 75.3534 99.4366 74.2603 89.7773 72.7547C80.1179 71.2491 52.0851 68.3684 50.0501 67.7188C48.0151 67.0691 32.7732 18.3116 32.7869 13.0625Z" fill="#367FA9"/>
<path d="M30.0508 21.9681C30.1746 22.3806 27.3008 23.8347 24.7639 26.7291L24.6883 26.815C23.6348 27.9976 22.7604 29.3284 22.093 30.7647C21.6564 31.82 21.5396 32.5763 21.3127 32.6106C21.0858 32.645 20.7696 31.9231 20.9689 30.5756C21.1683 29.2281 21.9692 27.5266 23.4267 25.8766L23.5058 25.7803C26.4483 22.3634 29.903 21.48 30.0371 21.9681H30.0508Z" fill="#367FA9"/>
<path d="M41.6283 64.1319C41.8964 64.4757 39.5658 66.7375 37.2833 70.01C37.2524 70.0582 37.218 70.1029 37.1871 70.1475C36.2358 71.4818 35.3866 72.886 34.6468 74.3482C34.1208 75.4344 33.8905 76.1907 33.6533 76.1907C33.4161 76.1907 33.2511 75.4138 33.5364 74.1007C33.8389 72.7257 34.5677 71.1375 35.8052 69.3672L35.9014 69.2229C38.3489 65.6685 41.3052 63.7229 41.6283 64.1319Z" fill="#367FA9"/>
<path d="M26.9434 31.2355C27.0087 31.2355 26.7612 32.0089 27.2046 32.0845C27.3456 32.1705 27.569 32.0639 27.8921 31.9058C28.3974 31.562 29.1331 30.8745 28.9474 30.3658C28.7618 29.857 28.5315 29.1042 28.1018 29.2348C27.6515 29.2177 27.1565 29.6577 26.5928 30.1939C25.4378 31.4452 24.3377 33.3667 24.709 34.9789C24.7834 35.3576 24.9402 35.7153 25.1683 36.0266C25.3964 36.3379 25.6903 36.5952 26.029 36.7802C26.7165 37.1686 27.5656 37.3267 28.5074 37.5398C29.2488 37.6677 29.9731 37.8799 30.6662 38.1723C30.8482 38.2554 31.025 38.3496 31.1956 38.4542C31.6357 38.7522 32.0007 39.1482 32.2619 39.611C32.5232 40.0738 32.6735 40.591 32.7012 41.1217C32.8799 43.6105 31.3262 46.1061 29.3084 47.2095C28.8986 47.4621 28.4383 47.6214 27.96 47.676C27.4818 47.7307 26.9974 47.6794 26.5412 47.5258C25.5099 47.0205 25.1387 45.917 25.1112 44.9648C25.1112 44.7758 24.9909 44.5214 24.9324 44.157C24.897 43.9069 24.9211 43.652 25.003 43.413C25.0848 43.1741 25.222 42.9579 25.4034 42.782C25.6534 42.5201 25.962 42.3212 26.3038 42.2017C26.6456 42.0822 27.0109 42.0455 27.3696 42.0945C27.6274 42.1729 27.8631 42.3109 28.0578 42.4972C28.2525 42.6835 28.4006 42.9129 28.4903 43.167C28.705 43.6678 28.7234 44.2311 28.5418 44.7448C28.1293 45.8105 27.349 45.6695 27.349 45.5939C27.349 45.5183 28.0365 45.3498 28.1327 44.683C28.2053 44.2843 28.1347 43.8728 27.9334 43.5211C27.8523 43.3543 27.7348 43.2079 27.5897 43.0925C27.4445 42.9771 27.2754 42.8956 27.0946 42.8542C26.7681 42.7717 26.3212 43.0192 25.9224 43.3973C25.8727 43.4537 25.8384 43.5218 25.8227 43.5953C25.8071 43.6688 25.8106 43.745 25.8331 43.8167C25.9385 44.1035 26.0179 44.3992 26.0702 44.7002C26.1734 45.4358 26.4587 46.2745 27.1015 46.4602C27.5827 46.6698 28.2771 46.5048 28.9337 46.1508C29.7363 45.6633 30.3936 44.9697 30.8374 44.1421C31.2811 43.3145 31.495 42.3831 31.4568 41.4448C31.4394 41.0802 31.3371 40.7248 31.1581 40.4067C30.9791 40.0886 30.7282 39.8167 30.4256 39.6127C30.2942 39.5293 30.1576 39.4547 30.0165 39.3892C29.3766 39.1443 28.7148 38.9612 28.0399 38.8427C27.0837 38.6841 26.1567 38.3828 25.2899 37.9489C24.8297 37.679 24.4344 37.3113 24.1321 36.8717C23.8297 36.4321 23.6277 35.9315 23.5403 35.4052C23.1965 33.1227 24.5234 30.8711 25.9465 29.4995C26.5618 28.843 27.3799 28.3102 28.2496 28.293C29.3084 28.4339 29.6453 29.4205 29.6659 30.1252C29.7003 31.3352 28.7171 32.1017 28.0331 32.387C27.8722 32.4908 27.6868 32.5506 27.4956 32.5602C27.3043 32.5699 27.1139 32.5291 26.9434 32.442C26.2559 31.8198 26.8609 31.2217 26.9434 31.2286V31.2355Z" fill="#367FA9"/>
<path d="M29.4183 51.5651C29.4183 51.4929 30.2261 50.6095 30.7933 51.6235C30.8609 51.889 30.8738 52.1655 30.8313 52.4361C30.7887 52.7068 30.6916 52.966 30.5458 53.1979C30.2787 53.7928 29.883 54.3211 29.3874 54.7448C29.1768 54.9559 28.9034 55.0928 28.6083 55.135C28.3131 55.1771 28.0123 55.1222 27.7511 54.9785C27.2787 54.6182 26.9271 54.1227 26.7429 53.5579C26.5587 52.9931 26.5507 52.3856 26.7199 51.816C27.1152 50.6441 27.8845 49.6344 28.9095 48.9423C29.8422 48.2033 31.0105 47.8261 32.1992 47.8801C32.7903 47.9814 33.3332 48.27 33.7478 48.7032C34.1625 49.1364 34.427 49.6914 34.5024 50.2863C34.6854 51.6216 34.5775 52.9807 34.1861 54.2704C33.9042 55.3807 33.5467 56.4567 33.1549 57.5567C33.0174 57.9623 32.952 58.141 32.8111 58.5467C32.3332 59.8269 31.9529 61.1415 31.6733 62.4792C31.498 63.5688 31.4567 64.5932 31.8589 65.3013C31.9827 65.6451 32.488 65.8032 32.983 66.037C33.5364 66.2295 34.0142 66.4151 34.4508 66.3188C34.2892 66.587 34.3167 66.202 34.7945 65.7792C35.5199 65.0126 36.1317 64.3423 36.4274 63.5826C36.5668 63.2472 36.5991 62.8768 36.5197 62.5223C36.4403 62.1678 36.2531 61.8465 35.9839 61.6026C35.8705 61.2829 35.2208 61.716 34.8564 62.0426C34.3099 62.6442 33.9455 63.1495 33.8905 63.6617C33.6052 64.2392 34.6089 64.0329 34.7395 63.9745C35.0627 63.8335 35.1761 63.6101 35.2174 63.6307C35.2586 63.6513 35.262 63.9126 34.8427 64.2185C34.6055 64.3904 33.4677 64.8442 33.3439 63.7201C33.4426 62.9142 33.8052 62.1636 34.3752 61.5854C34.8427 60.977 35.7502 60.4029 36.5924 60.8807C37.0093 61.2289 37.3063 61.6993 37.4413 62.2255C37.5764 62.7516 37.5428 63.3069 37.3452 63.8129C36.9176 64.8228 36.2937 65.7377 35.5095 66.5045C35.5095 66.5835 35.2758 67.082 34.4783 67.467C33.7899 67.5709 33.0861 67.4755 32.4502 67.192C31.7797 67.0331 31.1933 66.6282 30.807 66.0576C30.2605 65.0023 30.2399 63.7132 30.4633 62.4757C30.7427 61.0577 31.1358 59.6644 31.6389 58.3095L31.9827 57.316C32.3608 56.2263 32.7114 55.1917 32.9795 54.157C33.2889 52.9092 33.4986 51.7507 33.3233 50.7367C33.1583 49.8876 32.6117 49.1623 31.8899 49.1073C31.113 48.9767 30.1711 49.3617 29.4286 49.8635C28.6331 50.3649 28.0178 51.1066 27.672 51.981C27.3283 52.8679 27.782 53.772 28.3595 54.3048C28.4352 54.4835 28.7995 54.3529 29.047 54.1879C29.4696 53.8687 29.8208 53.4647 30.0783 53.002C30.343 52.4863 30.5217 52.1426 30.422 51.8504C30.4495 51.242 29.4458 51.6545 29.432 51.5823L29.4183 51.5651Z" fill="#367FA9"/>
<path d="M46.3858 19.147C46.3858 19.147 44.3542 18.9511 43.8833 21.5876C43.4124 24.2242 46.5646 38.2836 49.1496 39.3595C51.7346 40.4354 96.5011 47.8123 99.2511 44.2889C102.001 40.7654 95.4699 25.8398 92.7714 24.4923C90.073 23.1448 48.8471 17.8545 46.3858 19.147Z" fill="white"/>
<path d="M58.6449 28.0915C58.3851 28.0696 58.1501 28.1013 57.9401 28.1865C57.7332 28.2691 57.5532 28.3995 57.4 28.5777C57.2498 28.7562 57.1283 28.9767 57.0357 29.2394C56.943 29.5021 56.8826 29.8013 56.8543 30.137C56.8163 30.5896 56.8392 30.981 56.9231 31.3115C57.0102 31.6393 57.1649 31.8978 57.3871 32.087C57.6096 32.2733 57.9077 32.3822 58.2813 32.4136C58.5412 32.4354 58.8034 32.4281 59.0682 32.3916C59.3358 32.3553 59.6275 32.296 59.9431 32.2138L59.8473 33.3524C59.5543 33.4453 59.2685 33.5051 58.9899 33.5316C58.7111 33.5611 58.4009 33.5614 58.0593 33.5327C57.3995 33.4772 56.8679 33.2958 56.4646 32.9884C56.0643 32.6784 55.7827 32.2696 55.6196 31.7619C55.4567 31.2514 55.4029 30.6676 55.4582 30.0108C55.4989 29.5262 55.6019 29.088 55.7672 28.6961C55.9324 28.3043 56.1545 27.9716 56.4333 27.6982C56.712 27.4247 57.045 27.2233 57.4322 27.0942C57.8194 26.9651 58.2553 26.9209 58.7399 26.9617C59.0581 26.9884 59.3729 27.0561 59.6842 27.1646C59.9987 27.2704 60.2961 27.4057 60.5762 27.5703L60.0455 28.637C59.8157 28.503 59.5832 28.3835 59.348 28.2785C59.1128 28.1734 58.8784 28.1111 58.6449 28.0915ZM63.5141 28.8715C64.171 28.9267 64.6625 29.1121 64.9888 29.4277C65.3151 29.7433 65.4536 30.193 65.4045 30.7769L65.1301 34.0393L64.1974 33.9608L63.995 33.2735L63.96 33.2705C63.8051 33.4339 63.65 33.5649 63.4947 33.6636C63.3394 33.7622 63.1647 33.8298 62.9705 33.8664C62.7763 33.903 62.5435 33.9099 62.272 33.8871C61.983 33.8627 61.7278 33.7854 61.5065 33.6551C61.2881 33.525 61.1228 33.3406 61.0106 33.1018C60.8986 32.8601 60.8575 32.5627 60.8872 32.2094C60.9309 31.6898 61.1456 31.3227 61.5311 31.1081C61.9169 30.8907 62.4758 30.7995 63.2079 30.8346L64.0596 30.8798L64.0777 30.6653C64.0993 30.4083 64.048 30.2144 63.9238 30.0834C63.7995 29.9524 63.6177 29.8769 63.3783 29.8567C63.1419 29.8368 62.9069 29.8509 62.6736 29.8989C62.4402 29.9469 62.2054 30.0124 61.9691 30.0954L61.6027 29.1561C61.8741 29.0408 62.1736 28.9572 62.5014 28.9054C62.8321 28.8538 63.1696 28.8425 63.5141 28.8715ZM63.9941 31.6593L63.4759 31.6334C63.0428 31.6087 62.7356 31.6608 62.5542 31.7896C62.3758 31.9186 62.2768 32.0999 62.2571 32.3335C62.2399 32.5378 62.2875 32.6888 62.3998 32.7865C62.5124 32.8812 62.665 32.9367 62.8577 32.9529C63.1438 32.9769 63.3918 32.9125 63.6016 32.7597C63.8144 32.607 63.9339 32.3745 63.9602 32.0622L63.9941 31.6593ZM68.6542 33.3523C68.8002 33.3645 68.943 33.3618 69.0827 33.3442C69.2252 33.3268 69.367 33.302 69.5079 33.2697L69.4243 34.2638C69.2758 34.3159 69.0933 34.3535 68.8768 34.3765C68.6629 34.4026 68.4304 34.4051 68.1793 34.384C67.8874 34.3594 67.6286 34.2906 67.4029 34.1775C67.1804 34.0618 67.0118 33.8815 66.8971 33.6366C66.7856 33.3891 66.7476 33.0552 66.7829 32.6348L66.9815 30.2745L66.3421 30.2207L66.3897 29.6558L67.1629 29.271L67.6352 28.27L68.4891 28.3418L68.4015 29.384L69.7721 29.4993L69.6878 30.5021L68.3171 30.3868L68.1186 32.7471C68.1028 32.934 68.1436 33.0785 68.2409 33.1808C68.3413 33.2804 68.479 33.3375 68.6542 33.3523ZM72.8328 29.6553C73.4896 29.7106 73.9812 29.896 74.3075 30.2115C74.6337 30.5271 74.7723 30.9768 74.7232 31.5607L74.4488 34.8231L73.516 34.7446L73.3137 34.0573L73.2786 34.0543C73.1238 34.2177 72.9687 34.3487 72.8134 34.4474C72.6581 34.5461 72.4833 34.6137 72.2892 34.6503C72.095 34.6869 71.8621 34.6937 71.5906 34.6709C71.3016 34.6466 71.0465 34.5693 70.8252 34.4389C70.6068 34.3088 70.4415 34.1244 70.3293 33.8856C70.2173 33.644 70.1762 33.3465 70.2059 32.9933C70.2496 32.4736 70.4642 32.1065 70.8498 31.892C71.2356 31.6745 71.7945 31.5834 72.5265 31.6185L73.3783 31.6637L73.3963 31.4491C73.4179 31.1922 73.3666 30.9982 73.2424 30.8672C73.1182 30.7363 72.9364 30.6607 72.697 30.6406C72.4605 30.6207 72.2256 30.6347 71.9922 30.6827C71.7589 30.7307 71.5241 30.7962 71.2877 30.8792L70.9213 29.9399C71.1927 29.8246 71.4923 29.741 71.82 29.6892C72.1507 29.6376 72.4883 29.6263 72.8328 29.6553ZM73.3127 32.4431L72.7945 32.4172C72.3615 32.3925 72.0543 32.4446 71.8729 32.5734C71.6945 32.7025 71.5954 32.8838 71.5758 33.1173C71.5586 33.3217 71.6062 33.4727 71.7185 33.5703C71.8311 33.665 71.9837 33.7205 72.1764 33.7367C72.4625 33.7608 72.7104 33.6964 72.9203 33.5435C73.133 33.3909 73.2526 33.1584 73.2788 32.846L73.3127 32.4431ZM77.1638 35.0515L75.8282 34.9391L76.4013 28.1253L77.7369 28.2376L77.1638 35.0515ZM83.2252 33.0873C83.1909 33.496 83.1049 33.8533 82.9675 34.1593C82.833 34.4655 82.6514 34.7193 82.4228 34.9205C82.1973 35.1191 81.9325 35.2615 81.6283 35.3476C81.327 35.434 80.9925 35.4617 80.6246 35.4308C80.2802 35.4018 79.9681 35.3197 79.6884 35.1844C79.4116 35.0494 79.1758 34.865 78.9808 34.631C78.789 34.3944 78.648 34.1135 78.5578 33.7884C78.4704 33.4635 78.444 33.0967 78.4783 32.688C78.524 32.145 78.659 31.6933 78.8834 31.3329C79.1077 30.9725 79.4062 30.7095 79.7788 30.5439C80.1515 30.3782 80.5845 30.3162 81.0778 30.3577C81.5362 30.3962 81.9337 30.5281 82.2705 30.7535C82.6102 30.979 82.865 31.2886 83.0347 31.6821C83.2074 32.0759 83.2709 32.5443 83.2252 33.0873ZM79.8402 32.8026C79.8132 33.1237 79.8255 33.3967 79.8772 33.6215C79.9288 33.8464 80.0244 34.0205 80.164 34.144C80.3035 34.2675 80.493 34.3392 80.7324 34.3594C80.9689 34.3793 81.1648 34.3399 81.3201 34.2412C81.4783 34.1428 81.6002 33.987 81.6857 33.7737C81.7742 33.5606 81.832 33.2935 81.859 32.9724C81.8862 32.6483 81.8738 32.3768 81.8217 32.1578C81.7727 31.9361 81.6783 31.765 81.5385 31.6444C81.3987 31.5239 81.2091 31.4536 80.9697 31.4334C80.6165 31.4037 80.3494 31.5033 80.1684 31.7321C79.9904 31.9611 79.881 32.3179 79.8402 32.8026ZM85.3729 37.9117C84.6897 37.8543 84.1772 37.6906 83.8354 37.4208C83.4962 37.1541 83.3446 36.8062 83.3807 36.377C83.4055 36.0822 83.5182 35.8432 83.7188 35.6602C83.9195 35.4771 84.2014 35.3583 84.5647 35.3036C84.4324 35.2336 84.3207 35.1287 84.2296 34.9887C84.1387 34.8458 84.0995 34.6999 84.112 34.5511C84.1277 34.3642 84.1948 34.214 84.3131 34.1005C84.4317 33.9841 84.5982 33.8746 84.8126 33.7721C84.565 33.6395 84.3756 33.4443 84.2445 33.1863C84.1162 32.9285 84.0661 32.6332 84.0941 32.3004C84.124 31.9442 84.2268 31.6486 84.4024 31.4135C84.5812 31.1757 84.825 31.0036 85.1338 30.8973C85.4455 30.7912 85.816 30.7562 86.2451 30.7923C86.3356 30.7999 86.4402 30.8146 86.5589 30.8363C86.6777 30.8581 86.786 30.8804 86.8841 30.9034C86.985 30.9266 87.0526 30.944 87.0869 30.9557L88.7948 31.0994L88.7377 31.7781L87.9548 31.9107C88.0157 32.0246 88.0586 32.1444 88.0833 32.2699C88.108 32.3955 88.1146 32.5269 88.1031 32.6641C88.0589 33.1896 87.8405 33.5843 87.4478 33.8482C87.0583 34.1094 86.5381 34.2127 85.8871 34.1579C85.7331 34.1361 85.5881 34.1122 85.4521 34.0861C85.3805 34.133 85.3248 34.1841 85.2848 34.2396C85.2449 34.295 85.2222 34.3548 85.2168 34.4191C85.2114 34.4833 85.2331 34.5395 85.282 34.5877C85.334 34.6333 85.4131 34.6722 85.5191 34.7047C85.6284 34.7345 85.7647 34.7562 85.9282 34.77L86.7602 34.84C87.2974 34.8851 87.6964 35.0348 87.9573 35.289C88.221 35.5435 88.3341 35.894 88.2966 36.3407C88.2484 36.9129 87.9717 37.3365 87.4664 37.6115C86.964 37.8868 86.2662 37.9869 85.3729 37.9117ZM85.5031 37.0451C85.8213 37.0718 86.0968 37.0641 86.3297 37.022C86.5652 36.983 86.749 36.9132 86.8809 36.8126C87.0126 36.7149 87.0849 36.5901 87.0976 36.4383C87.108 36.3157 87.0797 36.2148 87.0128 36.1357C86.9487 36.0597 86.8448 36.001 86.7013 35.9596C86.5607 35.9183 86.378 35.8883 86.1532 35.8694L85.4613 35.8112C85.2979 35.7974 85.1482 35.8113 85.0124 35.8528C84.8796 35.8945 84.7712 35.9589 84.6875 36.046C84.6035 36.1359 84.5562 36.2436 84.5456 36.3692C84.5302 36.5531 84.6056 36.705 84.7719 36.8248C84.9411 36.9449 85.1849 37.0183 85.5031 37.0451ZM86.03 33.3497C86.2811 33.3708 86.4715 33.3089 86.6013 33.164C86.7311 33.0191 86.8072 32.8138 86.8295 32.5481C86.8543 32.2533 86.8115 32.0277 86.7012 31.8714C86.594 31.7125 86.4193 31.6228 86.177 31.6024C85.9318 31.5818 85.7416 31.6408 85.6064 31.7793C85.4715 31.915 85.3917 32.1303 85.3669 32.4251C85.3445 32.6908 85.3867 32.906 85.4934 33.0708C85.603 33.2358 85.7819 33.3288 86.03 33.3497Z" fill="#367FA9"/>
</svg>
