<svg width="125" height="125" viewBox="0 0 125 125" fill="none" xmlns="http://www.w3.org/2000/svg">
<rect x="0.5" y="0.5" width="124" height="124" rx="3.5" fill="#EEEEEE" stroke="#D2D6DE"/>
<path d="M51.75 60.3176C51.75 59.0376 52.7876 58 54.0676 58V58C54.9455 58 55.748 57.504 56.1406 56.7188L57.1667 54.6667C57.438 54.124 57.5737 53.8526 57.7653 53.6447C58.0132 53.3757 58.3301 53.1798 58.6815 53.0784C58.9533 53 59.2566 53 59.8634 53H66.1366C66.7434 53 67.0467 53 67.3185 53.0784C67.6699 53.1798 67.9868 53.3757 68.2347 53.6447C68.4263 53.8526 68.562 54.124 68.8333 54.6667L69.8594 56.7188C70.252 57.504 71.0545 58 71.9324 58V58C73.2124 58 74.25 59.0376 74.25 60.3176V67C74.25 69.8284 74.25 71.2426 73.3713 72.1213C72.4926 73 71.0784 73 68.25 73H57.75C54.9216 73 53.5074 73 52.6287 72.1213C51.75 71.2426 51.75 69.8284 51.75 67V60.3176Z" stroke="#C2C2C2" stroke-width="2"/>
<circle cx="63" cy="64.25" r="4" stroke="#C2C2C2" stroke-width="2"/>
</svg>
